# xmcd CD database file
#
# Track frame offsets:
#	150
#	17397
#	33150
#	50852
#	72257
#	90565
#	108129
#	120512
#	141187
#	158155
#
# Disc length: 2271 seconds
#
# Revision: 0
# Processed by: cddbd v1.5.2PL0 Copyright (c) Steve Scherf et al.
# Submitted via: cdripper 1,0,39,0213
#
DISCID=7808dd0a
DTITLE=Don Rice and The Bluesmasters - Blues Dives &and Rice
DYEAR=1997
DGENRE=Blues
TTITLE0=What's wrong with You
TTITLE1=New Man
TTITLE2=11 Months and 29 Days
TTITLE3=Cross Eyed Cat
TTITLE4=Sweet Revenge
TTITLE5=Long Time Dead
TTITLE6=You wear me Out
TTITLE7=Bound for Hell
TTITLE8=The Dive
TTITLE9=Alabama Boom
EXTD=YEAR: 1997
EXTT0=
EXTT1=
EXTT2=
EXTT3=
EXTT4=
EXTT5=
EXTT6=
EXTT7=
EXTT8=
EXTT9=
PLAYORDER=
